<?xml version="1.0" encoding="UTF-8" standalone="no"?>
<svg
   xmlns:dc="http://purl.org/dc/elements/1.1/"
   xmlns:cc="http://creativecommons.org/ns#"
   xmlns:rdf="http://www.w3.org/1999/02/22-rdf-syntax-ns#"
   xmlns:svg="http://www.w3.org/2000/svg"
   xmlns="http://www.w3.org/2000/svg"
   xmlns:sodipodi="http://sodipodi.sourceforge.net/DTD/sodipodi-0.dtd"
   xmlns:inkscape="http://www.inkscape.org/namespaces/inkscape"
   version="1.1"
   viewBox="0 0 463 207"
   enable-background="new 0 0 463 207"
   id="svg14"
   sodipodi:docname="buttonBuy.svg"
   width="463"
   height="207"
   inkscape:version="0.92.3 (2405546, 2018-03-11)">
  <metadata
     id="metadata20">
    <rdf:RDF>
      <cc:Work
         rdf:about="">
        <dc:format>image/svg+xml</dc:format>
        <dc:type
           rdf:resource="http://purl.org/dc/dcmitype/StillImage" />
        <dc:title></dc:title>
      </cc:Work>
    </rdf:RDF>
  </metadata>
  <defs
     id="defs18" />
  <sodipodi:namedview
     id="namedview16"
     showgrid="false"
     fit-margin-top="0"
     fit-margin-left="0"
     fit-margin-right="0"
     fit-margin-bottom="0"
     inkscape:zoom="0.50971922"
     inkscape:cx="231.5"
     inkscape:cy="417.39831"
     inkscape:window-x="-8"
     inkscape:window-y="-8"
     inkscape:window-maximized="1"
     inkscape:current-layer="svg14" />
  <g
     id="g12"
     transform="translate(0,-128)" fill="#FFD700">
    <path
       d="M 423.5,128 H 39.5 C 17.72,128 0,145.72 0,167.5 v 128 C 0,317.28 17.72,335 39.5,335 h 384 c 21.78,0 39.5,-17.72 39.5,-39.5 v -128 C 463,145.72 445.28,128 423.5,128 Z M 15,295.5 v -128 C 15,153.991 25.991,143 39.5,143 H 320 V 320 H 39.5 C 25.991,320 15,309.009 15,295.5 Z m 433,0 c 0,13.509 -10.991,24.5 -24.5,24.5 H 335 V 143 h 88.5 c 13.509,0 24.5,10.991 24.5,24.5 z"
       id="path2"
       inkscape:connector-curvature="0" />
    <path
       d="M 105.571,227.885 C 108.979,223.306 111,217.635 111,211.5 111,196.336 98.664,184 83.5,184 h -36 c -4.142,0 -7.5,3.358 -7.5,7.5 v 40 40 c 0,4.142 3.358,7.5 7.5,7.5 h 44 c 15.164,0 27.5,-12.336 27.5,-27.5 0,-10.024 -5.394,-18.809 -13.429,-23.615 z M 55,199 h 28.5 c 6.893,0 12.5,5.607 12.5,12.5 0,6.893 -5.607,12.5 -12.5,12.5 H 55 Z m 36.5,65 H 55 v -25 h 28.5 8 c 6.893,0 12.5,5.607 12.5,12.5 0,6.893 -5.607,12.5 -12.5,12.5 z"
       id="path4"
       inkscape:connector-curvature="0" />
    <path
       d="m 199.5,184 c -4.142,0 -7.5,3.358 -7.5,7.5 v 52 c 0,11.304 -9.196,20.5 -20.5,20.5 -11.304,0 -20.5,-9.196 -20.5,-20.5 v -52 c 0,-4.142 -3.358,-7.5 -7.5,-7.5 -4.142,0 -7.5,3.358 -7.5,7.5 v 52 c 0,19.575 15.925,35.5 35.5,35.5 19.575,0 35.5,-15.925 35.5,-35.5 v -52 c 0,-4.142 -3.358,-7.5 -7.5,-7.5 z"
       id="path6"
       inkscape:connector-curvature="0" />
    <path
       d="m 299.66,185.26 c -3.447,-2.297 -8.104,-1.367 -10.4,2.08 L 263.5,225.979 237.74,187.34 c -2.297,-3.447 -6.955,-4.378 -10.4,-2.08 -3.447,2.297 -4.378,6.954 -2.08,10.4 L 256,241.77 v 29.73 c 0,4.142 3.358,7.5 7.5,7.5 4.142,0 7.5,-3.358 7.5,-7.5 v -29.729 l 30.74,-46.11 c 2.298,-3.447 1.367,-8.104 -2.08,-10.401 z"
       id="path8"
       inkscape:connector-curvature="0" />
    <path
       d="m 380.803,186.197 c -2.929,-2.929 -7.678,-2.929 -10.606,0 -2.929,2.929 -2.929,7.678 0,10.606 l 34.697,34.697 -34.697,34.697 c -2.929,2.929 -2.929,7.678 0,10.606 1.464,1.464 3.384,2.197 5.303,2.197 1.919,0 3.839,-0.732 5.303,-2.197 l 40,-40 c 2.929,-2.929 2.929,-7.678 0,-10.606 z"
       id="path10"
       inkscape:connector-curvature="0" />
  </g>
</svg>
