<?xml version="1.0" encoding="iso-8859-1"?>
<!-- Generator: Adobe Illustrator 19.0.0, SVG Export Plug-In . SVG Version: 6.00 Build 0)  -->
<svg version="1.1" id="Layer_1" xmlns="http://www.w3.org/2000/svg" xmlns:xlink="http://www.w3.org/1999/xlink" x="0px" y="0px"
	 viewBox="0 0 512 512" style="enable-background:new 0 0 512 512;" xml:space="preserve">
<polygon style="fill:#E4E4E4;" points="8.297,105.003 49.581,69.25 90.865,105.003 132.149,69.25 173.433,105.003 214.716,69.25 
	256,105.003 297.284,69.25 338.568,105.003 379.851,69.25 421.135,105.003 462.419,69.25 503.703,105.003 503.703,442.749 
	8.297,442.749 "/>
<rect x="328.989" y="203.277" style="fill:#5C6670;" width="137.384" height="26.718"/>
<rect x="328.989" y="248.846" style="fill:#A4A9AD;" width="137.384" height="156.7"/>
<rect x="45.736" y="203.277" style="fill:#333E48;" width="179.004" height="26.718"/>
<rect x="45.736" y="153.658" style="fill:#FF5959;" width="420.648" height="11.448"/>
<path style="fill:#1E252B;" d="M224.733,238.285c4.582,0,8.297-3.714,8.297-8.297v-26.715c0-4.584-3.715-8.297-8.297-8.297H45.731
	c-4.582,0-8.297,3.714-8.297,8.297v26.715c0,4.584,3.715,8.297,8.297,8.297H224.733z M54.029,211.57h162.407v10.12H54.029V211.57z
	 M45.731,318.428h240.322v-16.595H45.731V318.428z M45.731,390.938h240.322v-16.595H45.731V390.938z M45.731,354.682h240.322
	v-16.595H45.731V354.682z M320.69,203.272v26.715c0,4.584,3.715,8.297,8.297,8.297h137.388c4.582,0,8.297-3.714,8.297-8.297v-26.715
	c0-4.584-3.715-8.297-8.297-8.297H328.988C324.405,194.975,320.69,198.689,320.69,203.272z M337.285,211.57h120.793v10.12H337.285
	V211.57z M509.135,98.73l-41.284-35.752c-3.118-2.699-7.747-2.699-10.864,0l-35.852,31.048l-35.852-31.048
	c-3.118-2.699-7.745-2.699-10.863,0l-35.853,31.048l-35.852-31.048c-3.118-2.699-7.745-2.699-10.863,0L256,94.026l-35.853-31.048
	c-3.118-2.699-7.747-2.699-10.863,0l-35.852,31.048L137.58,62.978c-3.118-2.699-7.747-2.699-10.863,0L90.865,94.026L55.013,62.978
	c-3.118-2.699-7.747-2.699-10.864,0L2.865,98.73C1.045,100.306,0,102.595,0,105.003v337.747c0,4.584,3.715,8.297,8.297,8.297
	h495.405c4.582,0,8.297-3.714,8.297-8.297V105.003C512,102.595,510.955,100.306,509.135,98.73z M495.405,434.452H16.595V108.794
	l32.986-28.567l35.852,31.048c3.118,2.698,7.747,2.698,10.864,0l35.852-31.048l35.853,31.048c3.118,2.698,7.745,2.698,10.864,0
	l35.851-31.048l35.853,31.048c3.118,2.698,7.745,2.698,10.863,0l35.853-31.048l35.851,31.048c3.119,2.698,7.747,2.698,10.864,0
	l35.853-31.048l35.852,31.048c3.118,2.698,7.747,2.698,10.864,0l35.852-31.048l32.986,28.567v325.658H495.405z M466.376,240.546
	H328.988c-4.582,0-8.297,3.714-8.297,8.297v156.696c0,4.582,3.715,8.297,8.297,8.297h137.388c4.582,0,8.297-3.715,8.297-8.297
	V248.843C474.674,244.261,470.959,240.546,466.376,240.546z M458.079,397.242H337.285V257.141h120.793L458.079,397.242
	L458.079,397.242z M45.731,282.172h240.322v-16.595H45.731V282.172z"/>
<g>
</g>
<g>
</g>
<g>
</g>
<g>
</g>
<g>
</g>
<g>
</g>
<g>
</g>
<g>
</g>
<g>
</g>
<g>
</g>
<g>
</g>
<g>
</g>
<g>
</g>
<g>
</g>
<g>
</g>
</svg>
